<?xml version="1.0" encoding="UTF-8"?><svg id="a" xmlns="http://www.w3.org/2000/svg" viewBox="0 0 2398.15 2398.15"><defs><style>.b{fill:#fa5c98;}.c{fill:#00edf9;}.d{fill:#fff;}.e{fill:#fce767;}.f{fill:#efefef;}.g{fill:#6b184e;}.h{fill:#d1d1db;}.i{fill:#d1d1d9;}.j{fill:#e42324;}.k{fill:#181558;}.l{fill:#29b6f6;}.m{fill:#3c6895;}.n{fill:#4d4b50;}.o{opacity:.3;}.p{opacity:.35;}.q{opacity:.6;}</style></defs><rect class="c" x="0" width="2398.15" height="2398.15"/><g><g class="o"><ellipse class="k" cx="1199.07" cy="1803.98" rx="659.22" ry="122.04"/></g><g><path class="h" d="M1750.54,1451.75c-20.98,231.36-146.51,355.23-370.02,355.23-23.77,0-47.06-2.13-69.71-6.22-70.97-12.81-143.83-12.79-214.8,.01-22.63,4.08-45.89,6.21-69.64,6.21-223.48,0-359-123.38-373.73-355.23-6-94.4,6.67-201.05,92.79-368.12,10.39-20.15,21.28-39.81,14.45-61.43-12.11-38.33-18.6-78.91-18.6-120.89,0-237.02,168.4-429.18,462.18-429.18s462.18,192.16,462.18,429.18c0,41.99-6.49,82.55-18.6,120.89-6.83,21.62,3.96,41.33,14.45,61.43,66.26,126.93,97.55,274.38,89.06,368.12Z"/><path class="h" d="M751.83,992.94c-6.94-29.51-10.58-60.18-10.58-91.61,0-13.85,.57-27.51,1.72-41.03,2.65,28.85,8.39,56.89,16.88,83.82,5.4,17.09-.27,32.96-8.02,48.82Z"/><path class="h" d="M1655.05,993.01c-7.79-15.86-13.42-31.78-8.02-48.89,8.48-26.88,14.21-54.83,16.86-83.61,1.16,13.44,1.74,27.06,1.74,40.82,0,31.45-3.65,62.14-10.59,91.68Z"/><g class="o"><path class="k" d="M1750.54,1451.74c-20.99,231.36-146.53,355.23-370.03,355.23-23.78,0-47.08-2.13-69.72-6.21-70.96-12.81-143.83-12.78-214.8,.02-22.64,4.08-45.89,6.19-69.65,6.19-223.48,0-359.01-123.37-373.75-355.23-1.56-24.55-1.86-49.93,.07-76.99,15.1,231.14,150.56,354.14,373.68,354.14,23.75,0,47.01-2.13,69.65-6.21,70.96-12.81,143.83-12.83,214.8-.02,22.64,4.1,45.94,6.24,69.72,6.24,221.95,0,347.29-122.16,369.55-350.45,2.27,26.72,2.45,51.47,.48,73.3Z"/></g><path class="h" d="M759.86,1022.2c6.82,21.63-4.06,41.3-14.46,61.45-63.71,123.61-87.21,214.14-92.72,291.11-.02-.36-.05-.73-.07-1.09-5.98-94.4,6.68-201.06,92.79-368.12,2.18-4.21,4.38-8.41,6.44-12.6,2.31,9.87,4.98,19.62,8.02,29.26Z"/><path class="h" d="M1750.54,1373.66c-.14,1.59-.29,3.17-.47,4.76-7.5-87.99-37.76-197.43-88.58-294.78-10.49-20.1-21.28-39.82-14.46-61.45,3.04-9.61,5.71-19.34,8.02-29.19,2.06,4.17,4.26,8.34,6.44,12.54,66.25,126.92,97.55,274.38,89.05,368.12Z"/><path class="d" d="M784.84,1092.66c-3,0-69.98-185.89,0-333.77,69.98-147.89,212.27-235.18,332.09-213.62s261.13-32.87,353.94,35.94c92.81,68.81,136.8,95.51,163.8,215.67s18,252.64-10,321.45c-27.99,68.81-743.85,5.85-743.85,5.85l-95.98-31.52Z"/><g class="o"><path class="k" d="M1650.87,975.56c-.33,67.04-10.14,127.49-26.21,166.95-27.99,68.8-743.85,5.85-743.85,5.85l-95.99-31.52c-1.79,0-26.49-66.51-31.07-151.61,98.65,72.9,266.04,120.87,455.92,120.87,180.74,0,341.11-43.45,441.19-110.54Z"/></g><path class="m" d="M1650.07,1012.1c4.1-37.24,11.47-164.88-60.65-282.28-90-146.53-228.28-117.66-276.46-76.48-69.13,59.06-75,192.32-70.97,239.71-7.06-1.59-30.8-13.68-38.56-13.68s-30.75,11.42-37.48,12.85c3.86-52.17-3.06-179.93-72.05-238.89-48.18-41.18-186.46-70.05-276.46,76.48-60.81,98.98-67.69,205.43-66.6,258.76-6.28-28.17-9.57-57.36-9.57-87.27,0-237.02,168.39-429.18,462.18-429.18s462.18,192.16,462.18,429.18c0,38.32-5.41,75.48-15.57,110.79Z"/><path class="m" d="M1166.43,884.29c.11,2.64,.2,5.23,.26,7.76-.26,.07-.52,.13-.74,.17,.17-2.49,.35-5.13,.48-7.94Z"/><path class="m" d="M1241.43,884.31c.15,3.16,.35,6.09,.57,8.74-.26-.07-.55-.13-.85-.22,.07-2.77,.15-5.6,.28-8.53Z"/><path class="m" d="M1652.16,982.7c.26,7.34,.35,14.28,.28,20.76-.76,2.9-1.55,5.78-2.37,8.66,.76-6.91,1.63-16.92,2.09-29.41Z"/><g class="p"><path class="d" d="M1665.63,901.31c0,5.56-.11,11.07-.35,16.59-6.76-176.92-110.57-326.12-288.3-384.42-4.77,20.56-34.58,32.29-67.43,26.27-33.48-6.15-57.49-28.39-53.59-49.67,.04-.24,.09-.46,.15-.7,3.69-17.44,25.27-28.67,51.63-28.32,12.55,2.22,24.83,4.86,36.78,7.91,203.97,51.73,321.11,216.74,321.11,412.33Z"/></g><g class="p"><path class="d" d="M1307.75,481.07c-26.36-.35-47.94,10.88-51.63,28.32-17.09-1.44-34.64-2.18-52.67-2.18-286.18,0-453.38,182.33-461.84,410.84-.24-5.56-.35-11.14-.35-16.75,0-237.02,168.39-429.18,462.18-429.18,36.69,0,71.48,3.08,104.3,8.94Z"/></g><g class="p"><path class="d" d="M1344.52,488.99c-11.95-3.05-24.22-5.69-36.78-7.91,5.17,.04,10.51,.55,15.94,1.55,7.5,1.37,14.5,3.56,20.84,6.37Z"/></g><path class="m" d="M1242,928.13c-7.06-1.59-30.8-13.67-38.57-13.67s-30.74,11.4-37.48,12.84c.7-9.53,1.05-21.58,.74-35.25,7.57-2.03,29.61-12.67,36.73-12.67s29.76,11.21,37.72,13.45c-.33,14.15,.09,26.27,.85,35.29Z"/><path class="m" d="M1665.63,936.39c0,38.33-5.41,75.48-15.56,110.79,1.03-9.39,2.27-24.49,2.37-43.73,7.26-27.55,11.64-56.16,12.84-85.55,.24,6.12,.35,12.29,.35,18.48Z"/><path class="k" d="M1650.07,1021.17c-.83,0-1.67-.11-2.51-.35-4.81-1.38-7.59-6.41-6.21-11.22,10.1-35.09,15.21-71.52,15.21-108.29,0-247.36-186.33-420.11-453.12-420.11s-453.12,168.83-453.12,420.11c0,28.75,3.15,57.45,9.35,85.3,1.09,4.89-1.99,9.73-6.88,10.82-4.89,1.09-9.73-1.99-10.82-6.88-6.49-29.14-9.79-59.16-9.79-89.24,0-60.33,10.61-117.66,31.54-170.39,21.1-53.18,52.08-100.12,92.08-139.53,41.25-40.64,91.12-72.27,148.24-94,59.88-22.77,126.96-34.32,199.38-34.32s138.15,11.55,197.85,34.32c57.02,21.75,106.94,53.36,148.39,93.97,40.31,39.49,71.58,86.43,92.94,139.51,21.28,52.88,32.07,110.22,32.07,170.44,0,38.46-5.35,76.58-15.92,113.3-1.13,3.96-4.76,6.55-8.7,6.55Z"/><path class="k" d="M1225.76,890.89c-.66,0-1.33-.07-2-.22-6.54-1.47-13.38-2.22-20.33-2.22s-13.12,.67-19.34,2c-4.9,1.05-9.71-2.07-10.76-6.97-1.04-4.9,2.07-9.71,6.97-10.76,7.46-1.59,15.24-2.4,23.13-2.4,8.29,0,16.48,.89,24.32,2.66,4.89,1.1,7.95,5.95,6.85,10.84-.95,4.21-4.69,7.07-8.84,7.07Z"/><path class="k" d="M1225.76,890.89c-.66,0-1.33-.07-2-.22-6.54-1.47-13.38-2.22-20.33-2.22s-13.12,.67-19.34,2c-4.9,1.05-9.71-2.07-10.76-6.97-1.04-4.9,2.07-9.71,6.97-10.76,7.46-1.59,15.24-2.4,23.13-2.4,8.29,0,16.48,.89,24.32,2.66,4.89,1.1,7.95,5.95,6.85,10.84-.95,4.21-4.69,7.07-8.84,7.07Z"/><path class="k" d="M1380.52,1816.04c-24.02,0-48.02-2.14-71.33-6.36-70.16-12.65-141.34-12.64-211.58,.02-23.33,4.2-47.3,6.34-71.24,6.34-56.55,0-108.22-7.87-153.55-23.39-45.52-15.59-85.16-39.05-117.82-69.74-32.85-30.87-58.95-69.35-77.57-114.39-18.76-45.36-30.14-97.92-33.85-156.21-3.54-55.77,.28-106.41,12.04-159.35,14.43-64.97,41.16-134.81,81.73-213.5l1.24-2.39c9.69-18.75,18.06-34.95,12.63-52.16-3.55-11.22-6.65-22.79-9.23-34.38-1.09-4.89,2-9.73,6.88-10.82s9.73,2,10.82,6.88c2.46,11.07,5.43,22.12,8.82,32.85,7.68,24.34-3.24,45.49-13.81,65.94l-1.23,2.37c-90.13,174.8-96.98,281.78-91.8,363.39,14.19,223.6,143.71,346.74,364.69,346.74,22.86,0,45.75-2.03,68.02-6.05,72.38-13.05,145.73-13.06,218.02-.02,22.26,4.03,45.18,6.07,68.11,6.07,215.58,0,340.41-119.99,360.98-346.98,8.99-99.07-26.39-244.99-88.04-363.1l-.77-1.47c-10.86-20.74-22.09-42.2-14.29-66.89,1.14-3.62,2.1-6.85,2.96-9.84,1.37-4.81,6.38-7.61,11.2-6.25,4.81,1.37,7.61,6.38,6.25,11.2-.89,3.15-1.91,6.53-3.1,10.33-5.53,17.52,3.09,33.98,13.06,53.04l.77,1.48c31.93,61.18,57.29,129.87,73.35,198.64,15.1,64.7,21.03,126.66,16.69,174.48-21.55,237.8-152.62,363.49-379.03,363.49Z"/><path class="k" d="M1226.01,893.53c-4.59,0-8.53-3.48-9.01-8.14-.09-.87-.18-1.76-.27-2.7-.47-4.98,3.18-9.41,8.17-9.89,4.99-.47,9.41,3.18,9.89,8.17,.08,.89,.17,1.74,.26,2.57,.51,4.98-3.11,9.43-8.09,9.94-.32,.04-.64,.05-.94,.05Z"/><path class="k" d="M1648.66,1031.92c-.51,0-1.03-.04-1.55-.13-4.93-.85-8.24-5.54-7.39-10.47,0-.03,.62-3.67,1.34-10.2,.55-4.98,5.02-8.57,10-8.02s8.57,5.02,8.02,10c-.79,7.15-1.47,11.13-1.49,11.3-.76,4.41-4.59,7.52-8.92,7.52Z"/><path class="k" d="M1181.92,893.86c-.31,0-.63-.02-.95-.05-4.98-.52-8.6-4.98-8.08-9.96,.1-.98,.18-1.97,.26-2.99,.4-4.99,4.77-8.71,9.76-8.32,4.99,.4,8.71,4.77,8.32,9.76-.09,1.15-.19,2.28-.31,3.42-.49,4.65-4.42,8.12-9.01,8.12Z"/><path class="k" d="M753.05,1032.27c-4.45,0-8.34-3.29-8.97-7.82-.08-.55-1.86-13.69-2.31-35.68-.1-5.01,3.88-9.14,8.88-9.24,5.01-.1,9.14,3.88,9.24,8.88,.42,20.82,2.12,33.44,2.14,33.56,.68,4.96-2.78,9.53-7.74,10.22-.42,.07-.83,.09-1.25,.09Z"/><g class="p"><path class="d" d="M816.14,1584.41s-16.27,2.73-36.11-5.73l36.11,5.73Z"/></g><g class="p"><path class="d" d="M1643.47,1578.01s16.27,2.73,36.11-5.73l-36.11,5.73Z"/></g><path class="k" d="M762.13,1445.51L504.78,757.58l182.69-68.34,257.36,687.93-182.7,68.34Zm-234.02-677.3l244.65,653.96,148.72-55.64-244.65-653.96-148.72,55.64Z"/><g><rect class="e" x="636.35" y="709.18" width="176.92" height="716.36" transform="translate(-328.05 321.64) rotate(-20.51)"/><path class="k" d="M762.13,1445.51L504.78,757.58l182.69-68.34,257.36,687.93-182.7,68.34Zm-234.02-677.3l244.65,653.96,148.72-55.64-244.65-653.96-148.72,55.64Z"/></g><g class="o"><rect class="k" x="558.83" y="746.52" width="43.93" height="236.62" transform="translate(-266.21 258.34) rotate(-20.51)"/></g><g class="p"><polygon class="d" points="820.69 1079.04 777.99 1095.01 638.5 716.93 681.2 700.96 820.69 1079.04"/></g><path class="k" d="M762.13,1445.51L504.78,757.58l182.69-68.34,257.36,687.93-182.7,68.34Zm-234.02-677.3l244.65,653.96,148.72-55.64-244.65-653.96-148.72,55.64Z"/><path class="k" d="M805.69,1429.22l-257.36-687.93,95.57-35.75,257.36,687.93-95.57,35.75Zm-234.02-677.3l244.65,653.96,61.61-23.05-244.65-653.96-61.61,23.05Z"/><rect class="f" x="501.12" y="678.14" width="176.92" height="55.51" transform="translate(-209.97 251.34) rotate(-20.51)"/><g class="o"><path class="k" d="M682.17,700.92l-165.71,61.98-4.95-13.21,104.87-39.23c21.42-8.02,32.29-31.87,24.28-53.29h0l22.04-8.24,19.47,52Z"/></g><path class="k" d="M511.13,774.57l-25.8-68.97,182.69-68.34,25.8,68.97-182.69,68.34Zm-2.46-58.34l13.09,35,148.72-55.64-13.09-35-148.72,55.64Z"/><path class="b" d="M554.77,567.07l-30.06,11.25c-37.46,14.01-56.46,55.74-42.45,93.19l14.74,39.4,165.71-61.99-14.74-39.4c-14.02-37.45-55.74-56.46-93.2-42.45Z"/><g class="p"><path class="d" d="M611.59,568.41c-11.25-1.65-23.05-.57-34.44,3.69l-35.23,13.19c-36.04,13.47-54.31,53.61-40.83,89.65l11.31,30.22-15.39,5.76-15.72-41.97c-13.47-36.04,4.8-76.17,40.83-89.65l35.23-13.19c18.38-6.87,37.8-5.47,54.24,2.31Z"/></g><g class="o"><path class="k" d="M662.69,648.92l-165.69,61.98-7.02-18.73,93.74-35.07c23.19-8.68,34.95-34.51,26.27-57.7h0c-6.33-16.89-18.53-29.91-33.42-37.54,30.11-2.27,59.32,15.39,70.42,45.06l15.7,42Z"/></g><path class="k" d="M491.69,722.58l-17.91-47.89c-7.63-20.38-6.86-42.52,2.16-62.32,9.02-19.8,25.22-34.91,45.6-42.54l30.06-11.25,3.18,8.49-3.18-8.49c20.38-7.63,42.52-6.86,62.32,2.16s34.91,25.22,42.54,45.6l17.91,47.89-182.68,68.34Zm88.39-151.04c-7.36,0-14.84,1.29-22.13,4.02l-30.06,11.25c-15.85,5.93-28.44,17.67-35.45,33.07-7.01,15.4-7.61,32.61-1.68,48.45l11.57,30.91,148.72-55.64-11.57-30.91c-9.51-25.43-33.72-41.15-59.4-41.15Z"/><path class="d" d="M563.19,1106.6c18.14,62.97,36.41,112.99,97.69,95.34,61.28-17.66,96.26-83.01,78.12-145.99-18.14-62.97-82.53-99.71-143.81-82.06-61.28,17.66-50.14,69.74-32,132.71Z"/><path class="h" d="M563.19,1106.6c18.14,62.97,36.41,112.99,97.69,95.34,61.28-17.66,96.26-83.01,78.12-145.99-18.14-62.97-82.53-99.71-143.81-82.06-61.28,17.66-50.14,69.74-32,132.71Z"/><g class="o"><path class="k" d="M660.89,1201.93c-61.28,17.66-79.55-32.35-97.69-95.34-7.39-25.64-13.63-49.47-14.26-69.92,.5,1.88,1.05,3.75,1.59,5.62,18.14,62.98,36.41,112.99,97.69,95.34,47.15-13.56,78.77-55.44,82.56-102.71,3.33,6.61,6.09,13.63,8.22,21.01,18.14,62.99-16.83,128.35-78.11,145.99Z"/></g><path class="h" d="M1793.07,1366.09c-18.14,62.97-36.41,112.99-97.69,95.34s-96.26-83.01-78.12-145.99c18.14-62.97,82.53-99.71,143.81-82.06,61.28,17.66,50.15,69.73,32,132.71Z"/><path class="k" d="M637.85,1214.61c-6.39,0-12.42-.86-18.14-2.58-11.94-3.59-22.06-10.74-30.94-21.87-15.82-19.83-25.25-49.65-34.29-81.05-9.04-31.39-16.92-61.66-14.08-86.87,1.59-14.14,6.36-25.58,14.56-34.98,8.8-10.08,21.14-17.3,37.72-22.07,32.01-9.22,65.78-5.09,95.09,11.63,29.23,16.67,50.51,43.89,59.94,76.63,19.5,67.68-18.33,138.2-84.32,157.2-9.17,2.65-17.64,3.97-25.55,3.97Zm-65.95-110.52c8.52,29.57,17.3,57.53,31.04,74.76,13.62,17.06,30.71,21.5,55.43,14.38,56.38-16.24,88.64-76.7,71.91-134.76-8.12-28.17-26.41-51.58-51.51-65.9-25.02-14.28-53.81-17.81-81.08-9.96-24.72,7.12-36.84,19.97-39.29,41.66-2.46,21.9,4.98,50.25,13.49,79.82Z"/><path class="l" d="M641.42,1090.07s-57.01-.47-28.65-28.52c0,0,61.76-2.81,120.94,22.93,59.17,25.74,334.4,70.94,356.34,96.05,21.94,25.11,118.34,56.46,193.79,22,75.45-34.47,4.56-22.4,84.46-44.38,79.9-21.99,393.8-106.32,416.49-92.75,22.69,13.57,11.15,17.23-9.93,27.87-21.08,10.64-447.87,105.24-452.97,118.98-5.11,13.75-83.98,46.28-161.68,31.94-77.71-14.34-84.23-41.01-108.91-47.34-24.69-6.32-409.87-106.78-409.87-106.78Z"/><g class="o"><path class="k" d="M641.42,1090.07s-57.01-.47-28.65-28.52c0,0,61.76-2.81,120.94,22.93,59.17,25.74,334.4,70.94,356.34,96.05,21.94,25.11,118.34,56.46,193.79,22,75.45-34.47,4.56-22.4,84.46-44.38,79.9-21.99,393.8-106.32,416.49-92.75,22.69,13.57,11.15,17.23-9.93,27.87-21.08,10.64-447.87,105.24-452.97,118.98-5.11,13.75-83.98,46.28-161.68,31.94-77.71-14.34-84.23-41.01-108.91-47.34-24.69-6.32-409.87-106.78-409.87-106.78Z"/></g><path class="l" d="M1100.86,1773.58s0,.05,.03,.08l-.03-.2c-.35-1.53-.53-3.11-.53-4.69,0-.62,.09-1.24,.14-1.86v-.11l-33.77-563.43c-4.4-2.34-9.1-4.1-14-5.32l-449.82-111.17c-1.37-.34-2.69,.4-3.24,1.53v.03c-.09,.54-.11,1.1-.14,1.64l136.3,569.79,365.4,119.34-.35-5.63Z"/><g class="o"><path class="k" d="M1100.86,1773.58s0,.05,.03,.08l-.03-.2c-.35-1.53-.53-3.11-.53-4.69,0-.62,.09-1.24,.14-1.86v-.11l-33.77-563.43c-4.4-2.34-9.1-4.1-14-5.32l-449.82-111.17c-1.37-.34-2.69,.4-3.24,1.53v.03c-.09,.54-.11,1.1-.14,1.64l136.3,569.79,365.4,119.34-.35-5.63Z"/></g><path class="l" d="M1336.92,1210.09l-33.65,556.22v.14l-.47,7.27v.03c-5.4,23.41-48.58,41.64-100.99,41.64s-95.59-18.26-100.93-41.73l-.03-.2-.38-6.56v-.11l-33.77-563.43c2.6,1.38,5.1,2.94,7.46,4.72,17.26,12.92,61.97,39.84,127.64,39.84,77.39,0,113.56-23.98,127.82-37.52,.94-.88,1.86-1.7,2.83-2.49,1.84-1.5,4.61-.14,4.47,2.18Z"/><path class="j" d="M1074.17,1208.08c4.46,3.36,10.79,7.63,18.81,12.13-9.97-3.79-18.66-7.94-25.98-11.96l-.29-4.89c2.6,1.39,5.11,2.94,7.47,4.72Z"/><g class="o"><path class="d" d="M1336.92,1210.09l-33.65,556.22v.14l-.47,7.27v.03c-5.4,23.41-48.58,41.64-100.99,41.64-35.52,0-66.75-8.37-84.89-21.09,16.24,5.09,35.87,8.06,56.98,8.06,52.41,0,95.59-18.24,100.99-41.64v-.03l.47-7.27v-.14l31.9-527.1c10.38-5.57,17.58-11.25,22.37-15.77,.94-.88,1.86-1.7,2.83-2.49,1.83-1.5,4.6-.14,4.46,2.18Z"/></g><g class="o"><path class="k" d="M1336.92,1210.09l-2.83,46.93c-17.27,16.71-43.68,33.22-87.48,38.79-26.4,3.35-52.3,1.85-73.95-1.2-28.72-4.05-53.97,18.74-52.29,46.84l27.99,466.96c-25.98-7.41-44.12-20.05-47.48-34.75l-.03-.2-.38-6.56v-.11l-33.77-563.43c2.6,1.38,5.1,2.94,7.46,4.72,17.26,12.92,61.97,39.84,127.64,39.84,77.39,0,113.56-23.98,127.82-37.52,.94-.88,1.86-1.7,2.83-2.49,1.85-1.5,4.62-.14,4.47,2.18Z"/></g><path class="j" d="M1804.2,1090.07l-136.32,569.8-365.39,119.33,.32-5.44v-.05c.4-1.63,.57-3.26,.57-4.94,0-.79-.07-1.51-.13-2.33v-.14l34.02-561.9c4.92-3.19,10.37-5.56,16.16-6.98l447.37-110.55c1.16-.29,2.25,.19,2.92,1.01,.44,.57,.67,1.36,.47,2.2Z"/><g class="o"><path class="g" d="M1801.32,1073.75l-130.33,560.8-44.45,14.5,122.2-510.6c.2-.85-.04-1.65-.48-2.2-.65-.83-1.74-1.31-2.9-1.03l-408.42,100.94,1.89-31.5c80.16-26.62,417.34-101.96,436.02-111.38,20.76-10.49,32.27-14.19,10.94-27.25l12.1,4.53c1.18-.31,2.29,.17,2.97,1,.44,.58,.64,1.37,.46,2.19Z"/></g><path class="l" d="M1804.21,1090.07l-49.84,208.26-45.26,189.15-41.24,172.38-365.39,119.34,.32-5.46v-.03c.41-1.64,.58-3.28,.58-4.95,0-.79-.09-1.5-.11-2.32v-.14l34-561.9c.55-.37,1.11-.71,1.66-1.02,4.49-2.69,9.36-4.72,14.49-5.97l447.37-110.55c.44-.11,.85-.11,1.25-.03,.67,.11,1.28,.51,1.69,1.02,.45,.59,.65,1.39,.48,2.21Z"/><g class="o"><path class="d" d="M1802.05,1086.85l-136.64,572.01-5.16,1.68,88.49-522.1c.2-.85-.03-1.64-.47-2.21-.67-.82-1.75-1.3-2.91-1.02l-408.41,100.94,1.98-32.77c4.49-2.69,9.36-4.72,14.49-5.97l447.37-110.55c.44-.12,.85-.12,1.25-.03Z"/></g><path class="f" d="M694.46,1069.81s-39.71,.37-6.8-27.14,87.67-15.37,96.41-8.42c8.73,6.95,100.13,36.96,163.54,21.96,63.41-15.01,151.97-5.3,202.81,38.8,50.83,44.1,72.39,80.03,64.45,91.03-7.94,11-105.25,5.5-124.81-5.5-19.54-11-82.41-18.83-110.81-30.02-28.41-11.2-284.78-80.71-284.78-80.71Z"/><path class="f" d="M1733.81,1059.82c.75,10.17-19.86,9.99-19.86,9.99,0,0-256.36,69.51-284.76,80.71-28.42,11.18-91.27,19.02-110.81,30.01-9.9,5.58-39.82,9.75-67.93,11.06-27.33,1.29-52.97-.14-56.89-5.55-7.93-10.99,13.62-46.94,64.46-91.05,50.83-44.08,139.39-53.78,202.81-38.78,63.4,15.01,154.8-15.01,163.53-21.96,8.75-6.96,63.51-19.08,96.42,8.41,9.2,7.7,12.74,13.23,13.03,17.15Z"/><g class="o"><path class="k" d="M1733.81,1059.82c.75,10.17-19.86,9.99-19.86,9.99,0,0-256.36,69.51-284.76,80.71-28.42,11.18-91.27,19.02-110.81,30.01-9.9,5.58-39.82,9.75-67.93,11.06l13.21-17.52c28.2-37.38,70.22-61.85,116.63-67.93l353.51-46.33Z"/></g><g class="o"><path class="k" d="M683.34,1059.82c-.75,10.17,19.86,9.99,19.86,9.99,0,0,256.36,69.51,284.76,80.71,28.42,11.18,91.27,19.02,110.81,30.01,9.9,5.58,39.82,9.75,67.93,11.06l-13.21-17.52c-28.2-37.38-70.22-61.85-116.63-67.93l-353.51-46.33Z"/></g><path class="k" d="M1201.83,1224.18c-.52,0-1.11,0-1.74-.02-.63,0-1.33,0-2.05-.03-25.93-.67-56.08-8.41-82.72-21.24-11.57-5.54-22.04-11.83-31.12-18.68-2.49-1.88-4.84-3.08-7.18-3.68l-439.01-110.85c-7-1.75-13.94-.59-19.54,3.29-5.47,3.79-9.05,9.79-9.81,16.46-.57,4.98-5.06,8.55-10.04,7.98s-8.55-5.06-7.98-10.04c1.35-11.86,7.73-22.54,17.5-29.31,9.95-6.89,22.13-9.01,34.29-5.97l439.05,110.87c4.74,1.22,9.18,3.43,13.63,6.78,8.12,6.13,17.56,11.79,28.05,16.81,24.44,11.77,51.91,18.86,75.38,19.45h.11c.53,.02,1.09,.02,1.62,.02h.42c.38,.03,.76,.02,1.14,.02h.82c27.05-.14,59.01-7.31,83.34-18.69,10.89-5.07,19.89-10.79,26.75-17,.61-.55,1.21-1.1,1.8-1.65,4.59-4.24,9.78-9.05,17.52-10.96l408.02-100.43,21.28-5.23c11.63-2.91,23.42-.92,33.15,5.6,9.8,6.56,16.43,17.06,18.17,28.82,.19,1.23,.32,2.49,.39,3.76,.26,5-3.59,9.26-8.59,9.52s-9.26-3.59-9.52-8.59c-.04-.65-.1-1.29-.2-1.9l-.02-.1c-.99-6.72-4.75-12.72-10.33-16.45-5.43-3.63-12.07-4.72-18.71-3.06l-21.31,5.24-408.01,100.43c-3.2,.79-6.15,3.51-9.56,6.67-.64,.59-1.29,1.19-1.94,1.79-8.21,7.43-18.72,14.16-31.25,19.99-26.54,12.42-61.4,20.23-90.96,20.4l-.86-.02Z"/><path class="k" d="M1201.83,1824.46c-26.45,0-51.91-4.54-71.69-12.79-15.27-6.37-26.54-14.73-32.9-24.23l-369.05-120.53-137.8-575.97,.05-1.27c.02-.6,.07-1.2,.14-1.8v-1.53l.9-1.89c2.43-5.02,8.12-7.72,13.54-6.4l449.86,111.19c9.09,2.24,17.4,6.14,24.7,11.59,15.28,11.44,57.77,38.04,122.23,38.04,73.71,0,107.8-21.96,121.56-35.04l.04-.04c1.07-1,2.17-1.97,3.29-2.88,3.64-2.98,8.7-3.53,12.9-1.38,4.15,2.12,6.65,6.48,6.37,11.11l-33.66,555.94-.02,.43-.43,6.99v.76l-.23,1.06c-3.31,14.29-16.89,27.05-38.23,35.92-19.77,8.21-45.19,12.73-71.58,12.73Zm-91.95-52.2c2.22,8.12,12.09,16.35,27.24,22.67,17.63,7.35,40.61,11.4,64.71,11.4s47.01-4.03,64.64-11.36c15.16-6.3,25.07-14.5,27.36-22.61l.4-6.62,32.77-541.32c-19.56,14.59-57.42,32.57-125.16,32.57s-116.36-29.13-133.09-41.65c-5.34-3.99-11.46-6.85-18.18-8.5l-439.8-108.7,132.7,554.69,347.95,113.64,.02-.28,18.09,.17,.35,5.91Z"/><path class="k" d="M1292.66,1791.95l1.09-18.46v-.82l.26-1.1c.21-.87,.31-1.79,.31-2.81,0-.24-.02-.58-.05-1-.02-.25-.04-.51-.05-.78l-.02-.92,.02-.32,34.29-566.48,3.84-2.49c5.84-3.78,12.21-6.53,18.93-8.18l447.35-110.55c4.5-1.12,9.14,.44,12.1,4.06l.16,.2c2.16,2.8,2.94,6.38,2.12,9.83v.03l-137.5,574.73-382.86,125.04Zm19.68-25.61s0,.07,0,.1l347.89-113.62,132.7-554.69-437.34,108.07c-3.33,.82-6.53,2.01-9.57,3.57l-33.69,556.56Zm491.86-676.27h0Z"/><path class="k" d="M1290.7,1191.21c0,17.84-38.51,23.9-86,23.9s-86-6.07-86-23.9,65.69-40.69,86-40.69c23.13,0,86,22.85,86,40.69Z"/><path class="k" d="M1204.7,1164.48c-2.94,0-5.82-1.43-7.57-4.06-55.05-83.02-131.25-113.65-239.81-96.38-28.14,4.48-62.3,3.33-101.54-3.39-28.06-4.81-58.08-12.32-89.23-22.32-23.93-7.69-49.98-3.18-69.67,12.06l-29.74,23.02c-3.96,3.06-9.65,2.34-12.72-1.62s-2.34-9.65,1.62-12.72l29.74-23.02c24.41-18.9,56.68-24.5,86.3-14.99,42.06,13.51,121.69,34.73,182.37,25.07,53.88-8.57,99.42-6.09,139.22,7.58,22.75,7.82,43.99,19.53,63.12,34.81,20.31,16.23,38.96,37.05,55.43,61.88,2.76,4.17,1.62,9.8-2.55,12.57-1.53,1.01-3.27,1.5-4.99,1.5Z"/><path class="k" d="M1199.31,1164.48c-1.72,0-3.46-.49-5-1.51-4.17-2.77-5.31-8.39-2.55-12.57,16.46-24.83,35.11-45.65,55.43-61.88,19.13-15.28,40.37-26.99,63.12-34.81,39.8-13.68,85.34-16.15,139.22-7.58,60.69,9.65,140.31-11.57,182.37-25.07,29.62-9.51,61.89-3.91,86.3,14.99l29.74,23.02c3.96,3.06,4.68,8.76,1.62,12.72s-8.76,4.69-12.72,1.62l-29.74-23.02c-19.69-15.24-45.73-19.75-69.67-12.06-31.15,10-61.16,17.51-89.23,22.32-39.24,6.73-73.4,7.87-101.54,3.39-108.56-17.27-184.76,13.36-239.81,96.38-1.74,2.64-4.62,4.06-7.56,4.06Z"/><path class="k" d="M1091.82,1774.23l-40.6-570.23c-.35-4.99,3.41-9.33,8.4-9.69,4.99-.35,9.33,3.41,9.69,8.4l40.56,569.7c.04,.35,.06,.7,.06,1.06v.07l-18.11,.69Z"/><path class="n" d="M1633.33,1735.48s-132.7,123.97-197.91,94.31c-.53-.24-1.03-.57-1.53-.9-.59-.16-1.17-.32-1.7-.57-54.89-24.96-59-211.15-59-211.15,.17-12.48,1.34-23.71,6.09-34.16,9.64-21.19,29.35-37.06,52.23-38.91,12.22-1,23.42,2.16,32.59,8.33,10.45,7.03,24.52,5.18,34.4-4.62,18.99-18.84,46.41-25.95,70.12-15.17,31.28,14.23,34.62,44.77,32.36,66.7-1.25,12.04,5.94,22.23,16.75,24.06,12.48,2.12,24.02,8.82,32.36,20.1h.02c20.32,27.55,12.88,66-16.76,91.98Z"/><path class="n" d="M1633.33,1735.48s-132.7,123.97-197.91,94.31c-.53-.24-1.03-.57-1.53-.9-.59-.16-1.17-.32-1.7-.57-54.89-24.96-59-211.15-59-211.15,.17-12.48,1.34-23.71,6.09-34.16,9.64-21.19,29.35-37.06,52.23-38.91,12.22-1,23.42,2.16,32.59,8.33,10.45,7.03,24.52,5.18,34.4-4.62,18.99-18.84,46.41-25.95,70.12-15.17,31.28,14.23,34.62,44.77,32.36,66.7-1.25,12.04,5.94,22.23,16.75,24.06,12.48,2.12,24.02,8.82,32.36,20.1h.02c20.32,27.55,12.88,66-16.76,91.98Z"/><g class="o"><path class="k" d="M1660.77,1688.05c-2.61,17-12.01,33.92-27.45,47.44,0,0-132.7,123.96-197.91,94.29-.55-.24-1.03-.57-1.53-.89-.59-.17-1.18-.33-1.7-.57-54.89-24.96-59.02-211.15-59.02-211.15,.17-12.49,1.35-23.72,6.1-34.16,2.25-4.95,5.04-9.59,8.3-13.84-.72,5.13-.98,10.49-1.07,16.07,0,0,15.06,163.51,69.95,188.47,.55,.24,1.11,.41,1.7,.57,.5,.35,1,.68,1.53,.92,65.23,29.65,186.97-71.64,186.97-71.64,5.48-4.8,10.19-10.01,14.11-15.5Z"/></g><g class="o"><path class="d" d="M1661.52,1678.39c0,20.12-9.83,41.01-28.19,57.1,0,0-132.7,123.96-197.91,94.29-.55-.24-1.03-.57-1.53-.89-.59-.17-1.18-.33-1.7-.57-.07-.02-.11-.04-.17-.09,.37-.65,.61-1.03,.68-1.03,.46,.31,.89,.61,1.37,.83,59.14,26.88,179.47-85.52,179.47-85.52,16.66-14.59,25.57-33.53,25.57-51.76,0-11.21-3.36-22.13-10.38-31.63-7.57-10.22-18.03-16.31-29.35-18.23-9.81-1.65-16.31-10.9-15.2-21.82,2.07-19.88-.96-47.59-29.32-60.5-21.52-9.77-46.37-3.32-63.59,13.76-8.96,8.9-21.72,10.58-31.2,4.21-8.3-5.61-18.47-8.46-29.54-7.57-20.76,1.68-38.63,16.07-47.38,35.29-4.29,9.46-5.37,19.64-5.52,30.96,0,0-.87,11.31-1.57,28.95-2.46-27.36-2.9-47-2.9-47,.17-12.49,1.35-23.72,6.1-34.16,9.63-21.19,29.34-37.06,52.24-38.92,12.21-.98,23.41,2.18,32.59,8.33,10.44,7.04,24.5,5.19,34.38-4.62,18.99-18.84,46.42-25.94,70.13-15.17,31.27,14.23,34.62,44.78,32.35,66.71-1.24,12.03,5.93,22.24,16.75,24.07,12.47,2.12,24.01,8.83,32.35,20.1,7.76,10.49,11.48,22.54,11.48,34.88Z"/></g><path class="n" d="M769.45,1735.48s132.7,123.97,197.91,94.31c.53-.24,1.03-.57,1.53-.9,.59-.16,1.17-.32,1.7-.57,54.89-24.96,59-211.15,59-211.15-.17-12.48-1.34-23.71-6.09-34.16-9.64-21.19-29.35-37.06-52.23-38.91-12.22-1-23.42,2.16-32.59,8.33-10.45,7.03-24.52,5.18-34.4-4.62-18.99-18.84-46.41-25.95-70.12-15.17-31.28,14.23-34.62,44.77-32.36,66.7,1.25,12.04-5.94,22.23-16.75,24.06-12.48,2.12-24.02,8.82-32.36,20.1h-.02c-20.32,27.55-12.88,66,16.76,91.98Z"/><path class="k" d="M1458.37,1843.43c-9.89,0-18.8-1.8-26.71-5.4-.59-.27-1.11-.55-1.57-.83-.51-.17-1.07-.38-1.66-.64-14.96-6.8-27.09-22.67-37.08-48.51-7.4-19.14-13.53-43.79-18.21-73.26-7.9-49.7-8.98-95.51-9.02-97.43v-.32c.15-11.52,1.09-25.02,6.89-37.78,11.46-25.2,34.36-42.14,59.76-44.19,13.86-1.13,27.13,2.28,38.38,9.84,6.91,4.65,16.14,3.23,22.95-3.53,22.45-22.28,53.96-28.96,80.26-16.99,28,12.73,41.36,39.69,37.62,75.89-.74,7.19,3.14,13.16,9.24,14.19,14.44,2.45,27.36,10.12,36.64,21.71l.09,.04,1.42,1.91c22.91,31.04,15.36,74.79-17.96,104.07-2.48,2.31-34.86,32.23-75.59,59.11-42.45,28.03-77.77,42.11-105.45,42.11Zm-19.07-21.84c23.69,10.66,63.29-1.58,114.53-35.4,40.22-26.55,72.98-57.03,73.31-57.33l.22-.19c25.92-22.72,32.52-55.9,15.86-79.18l-.44-.59c-6.65-9.01-15.85-14.72-26.58-16.55-15.55-2.64-25.97-17.22-24.25-33.93,2.96-28.65-6.15-48-27.09-57.53-19.38-8.81-42.93-3.57-59.98,13.36-12.92,12.82-31.76,15.17-45.84,5.71-7.81-5.25-17.07-7.61-26.8-6.82-18.84,1.52-35.97,14.41-44.71,33.63-3.55,7.8-5.08,16.6-5.28,30.35,.08,2.97,1.33,47.9,8.83,95.01,9.66,60.72,25.55,99.01,44.74,107.87,.16,.05,.33,.1,.5,.14l1.37,.38,1.19,.78c.16,.1,.29,.2,.42,.28Z"/><path class="i" d="M1793.07,1366.09c-18.14,62.97-36.41,112.99-97.69,95.34s-96.26-83.01-78.12-145.99c18.14-62.97,82.53-99.71,143.81-82.06,61.28,17.66,50.15,69.73,32,132.71Z"/><g class="q"><path class="d" d="M1620.25,1339.43c18.14-62.97,82.53-99.71,143.81-82.06,25.01,7.21,37.95,20.14,43.28,37.21,.5-28.96-10.61-50.92-46.28-61.19-61.28-17.66-125.67,19.08-143.81,82.06-5.9,20.47-6.15,41.19-1.74,60.45-.28-12,1.22-24.28,4.74-36.47Z"/></g><g class="o"><path class="k" d="M1807.37,1290.9c.39,21.56-6.28,47.31-14.3,75.19-18.14,62.98-36.41,112.99-97.69,95.34-61.28-17.66-96.25-83.02-78.11-145.98,2.37-8.26,5.56-16.09,9.42-23.39,5.56,45.15,36.56,84.5,82.02,97.6,61.28,17.66,79.55-32.38,97.69-95.34,.32-1.16,.65-2.29,.98-3.42Z"/></g><path class="g" d="M1718.41,1474.11c-7.91,0-16.37-1.32-25.55-3.96-32.01-9.22-58.41-30.68-74.32-60.43-15.88-29.67-19.42-64.04-9.99-96.77,19.5-67.68,89.04-107.27,155.03-88.26,16.58,4.78,28.93,12,37.72,22.08,8.2,9.39,12.96,20.83,14.56,34.98,2.85,25.21-5.04,55.48-14.08,86.87-9.04,31.4-18.47,61.22-34.29,81.05-8.88,11.13-18.99,18.28-30.94,21.87-5.73,1.71-11.75,2.58-18.14,2.58Zm11.52-236.06c-46.64,0-90.06,31.65-103.96,79.91-8.12,28.17-5.08,57.72,8.56,83.2,13.59,25.4,36.09,43.71,63.36,51.57,24.72,7.12,41.82,2.69,55.43-14.38,13.74-17.22,22.52-45.19,31.04-74.76s15.96-57.92,13.48-79.82c-2.45-21.69-14.57-34.54-39.29-41.66-9.52-2.75-19.14-4.05-28.62-4.05Z"/><path class="k" d="M1718.41,1474.11c-7.91,0-16.37-1.32-25.55-3.96-32.01-9.22-58.41-30.68-74.32-60.43-15.88-29.67-19.42-64.04-9.99-96.77,19.5-67.68,89.04-107.27,155.03-88.26,16.58,4.78,28.93,12,37.72,22.08,8.2,9.39,12.96,20.83,14.56,34.98,2.85,25.21-5.04,55.48-14.08,86.87-9.04,31.4-18.47,61.22-34.29,81.05-8.88,11.13-18.99,18.28-30.94,21.87-5.73,1.71-11.75,2.58-18.14,2.58Zm11.52-236.06c-46.64,0-90.06,31.65-103.96,79.91-8.12,28.17-5.08,57.72,8.56,83.2,13.59,25.4,36.09,43.71,63.36,51.57,24.72,7.12,41.82,2.69,55.43-14.38,13.74-17.22,22.52-45.19,31.04-74.76s15.96-57.92,13.48-79.82c-2.45-21.69-14.57-34.54-39.29-41.66-9.52-2.75-19.14-4.05-28.62-4.05Z"/><ellipse class="k" cx="1023.72" cy="872.34" rx="47.68" ry="64.2"/><ellipse class="d" cx="1036.77" cy="879.38" rx="11.43" ry="25.09"/><ellipse class="k" cx="1383.14" cy="872.34" rx="47.68" ry="64.2"/><ellipse class="d" cx="1371.17" cy="879.38" rx="11.43" ry="25.09"/><path class="k" d="M1203.43,995.6c-35.31,0-45.25-26.79-55.56-28.93-28.32-5.88-35.77-26.5-24.1-42.06,14.67-19.57,48.49-18.1,79.68-18.1s65.01-1.47,79.68,18.1c11.67,15.56,4.21,36.18-24.1,42.06-10.31,2.14-20.25,28.93-55.56,28.93h-.05Z"/><g><path class="e" d="M1203.47,879.38c35.31,0,45.25,24.68,55.56,26.66,28.32,5.42,35.77,24.41,24.1,38.74-14.67,18.03-48.49,16.67-79.68,16.67s-65.01,1.35-79.68-16.67c-11.67-14.33-4.21-33.33,24.1-38.74,10.31-1.97,20.25-26.66,55.56-26.66h.05Z"/><path class="k" d="M1215.81,970.54c-2.09,0-4.18,0-6.27-.01-4.07-.01-8.11-.01-12.18,0-31.55,.09-64.18,.18-80.63-20.03-7.09-8.72-9.15-19.22-5.66-28.83,4.43-12.16,17.18-21.1,35-24.53,1.22-.46,4.25-3.24,6.47-5.28,8.79-8.06,23.5-21.56,50.88-21.56h.04c27.37,0,42.09,13.5,50.88,21.56,2.22,2.04,5.25,4.82,6.47,5.28,17.82,3.43,30.57,12.37,35,24.53,3.5,9.6,1.43,20.11-5.66,28.83-15.35,18.87-44.82,20.04-74.35,20.04Zm-12.36-18.15c2.04,0,4.08,0,6.14,.01,27.3,.08,55.53,.16,66.51-13.35,2.13-2.61,4.32-6.68,2.69-11.18-2.16-5.95-10.19-10.79-21.46-12.94-5.88-1.12-10.21-5.1-15.23-9.71-8.15-7.48-18.3-16.79-38.62-16.79h-.04c-20.32,0-30.47,9.31-38.62,16.79-5.02,4.6-9.35,8.58-15.23,9.71-11.27,2.16-19.29,7-21.46,12.94-1.64,4.5,.56,8.56,2.69,11.18,10.99,13.5,39.22,13.42,66.52,13.35,2.04,0,4.09-.01,6.13-.01Zm-57.42-55.23h0Z"/></g><g class="o"><path class="k" d="M1283.14,944.79c-14.67,18.03-48.48,16.68-79.68,16.68s-65.01,1.35-79.68-16.68c-7.06-8.7-7.1-19.08,.22-27.12,14.8,17.75,48.42,16.42,79.46,16.42s64.66,1.33,79.46-16.42c7.33,8.05,7.29,18.42,.23,27.12Z"/></g><path class="k" d="M1215.81,970.54c-2.09,0-4.18,0-6.27-.01-4.07-.01-8.11-.01-12.18,0-31.55,.09-64.18,.18-80.63-20.03-7.09-8.72-9.15-19.22-5.66-28.83,4.43-12.16,17.18-21.1,35-24.53,1.22-.46,4.25-3.24,6.47-5.28,8.79-8.06,23.5-21.56,50.88-21.56h.04c27.37,0,42.09,13.5,50.88,21.56,2.22,2.04,5.25,4.82,6.47,5.28,17.82,3.43,30.57,12.37,35,24.53,3.5,9.6,1.43,20.11-5.66,28.83-15.35,18.87-44.82,20.04-74.35,20.04Zm-12.36-18.15c2.04,0,4.08,0,6.14,.01,27.3,.08,55.53,.16,66.51-13.35,2.13-2.61,4.32-6.68,2.69-11.18-2.16-5.95-10.19-10.79-21.46-12.94-5.88-1.12-10.21-5.1-15.23-9.71-8.15-7.48-18.3-16.79-38.62-16.79h-.04c-20.32,0-30.47,9.31-38.62,16.79-5.02,4.6-9.35,8.58-15.23,9.71-11.27,2.16-19.29,7-21.46,12.94-1.64,4.5,.56,8.56,2.69,11.18,10.99,13.5,39.22,13.42,66.52,13.35,2.04,0,4.09-.01,6.13-.01Zm-57.42-55.23h0Z"/><g class="o"><path class="d" d="M739.04,1678.39c0,20.12,9.83,41.01,28.19,57.1,0,0,132.7,123.96,197.91,94.29,.55-.24,1.03-.57,1.53-.89,.59-.17,1.18-.33,1.7-.57,.07-.02,.11-.04,.17-.09-.37-.65-.61-1.03-.68-1.03-.46,.31-.89,.61-1.37,.83-59.14,26.88-179.47-85.52-179.47-85.52-16.66-14.59-25.57-33.53-25.57-51.76,0-11.21,3.36-22.13,10.38-31.63,7.57-10.22,18.03-16.31,29.35-18.23,9.81-1.65,16.31-10.9,15.2-21.82-2.07-19.88,.96-47.59,29.32-60.5,21.52-9.77,46.37-3.32,63.59,13.76,8.96,8.9,21.72,10.58,31.2,4.21,8.3-5.61,18.47-8.46,29.54-7.57,20.76,1.68,38.63,16.07,47.38,35.29,4.29,9.46,5.37,19.64,5.52,30.96,0,0,.87,11.31,1.57,28.95,2.46-27.36,2.9-47,2.9-47-.17-12.49-1.35-23.72-6.1-34.16-9.63-21.19-29.34-37.06-52.24-38.92-12.21-.98-23.41,2.18-32.59,8.33-10.44,7.04-24.5,5.19-34.38-4.62-18.99-18.84-46.42-25.94-70.13-15.17-31.27,14.23-34.62,44.78-32.35,66.71,1.24,12.03-5.93,22.24-16.75,24.07-12.47,2.12-24.01,8.83-32.35,20.1-7.77,10.49-11.48,22.54-11.48,34.88Z"/></g><path class="k" d="M944.41,1843.43c-27.68,0-62.99-14.08-105.45-42.11-40.73-26.88-73.11-56.81-75.59-59.11-33.32-29.28-40.88-73.03-17.96-104.07l1.4-1.9,.11-.05c9.28-11.58,22.2-19.26,36.64-21.71,6.1-1.03,9.98-7,9.24-14.19-3.74-36.21,9.62-63.16,37.62-75.89,26.3-11.96,57.81-5.29,80.26,16.99,6.81,6.76,16.03,8.18,22.95,3.53,11.25-7.57,24.53-10.97,38.38-9.84,25.39,2.05,48.29,18.99,59.75,44.19,5.81,12.77,6.74,26.27,6.9,37.78v.32c-.05,1.92-1.14,47.73-9.03,97.43-4.68,29.47-10.8,54.11-18.21,73.26-9.99,25.83-22.12,41.7-37.08,48.51-.59,.27-1.15,.47-1.66,.64-.46,.28-.98,.56-1.56,.83-7.91,3.59-16.82,5.39-26.7,5.39Zm-168.77-114.58c.33,.31,33.24,30.91,73.5,57.46,51.15,33.74,90.68,45.93,114.34,35.28,.13-.08,.26-.17,.39-.26l1.19-.78,1.41-.41c.17-.05,.34-.09,.5-.14,19.19-8.86,35.07-47.15,44.74-107.87,7.49-47.1,8.75-92.03,8.83-95.01-.19-13.75-1.73-22.55-5.28-30.35-8.74-19.22-25.87-32.11-44.71-33.63-9.73-.79-18.99,1.56-26.81,6.82-14.07,9.46-32.92,7.11-45.84-5.71-17.06-16.93-40.6-22.17-59.98-13.36-20.94,9.52-30.05,28.87-27.09,57.53,1.73,16.71-8.69,31.3-24.25,33.93-10.73,1.82-19.92,7.54-26.58,16.55l-.53,.71c-16.55,23.27-9.93,56.37,15.95,79.06l.21,.19h0Z"/><g class="o"><path class="k" d="M739.41,1688.05c2.61,17,12.01,33.92,27.45,47.44,0,0,132.7,123.96,197.91,94.29,.55-.24,1.03-.57,1.53-.89,.59-.17,1.18-.33,1.7-.57,54.89-24.96,59.02-211.15,59.02-211.15-.17-12.49-1.35-23.72-6.1-34.16-2.25-4.95-5.04-9.59-8.3-13.84,.72,5.13,.98,10.49,1.07,16.07,0,0-15.06,163.51-69.95,188.47-.55,.24-1.11,.41-1.7,.57-.5,.35-1,.68-1.53,.92-65.23,29.65-186.97-71.64-186.97-71.64-5.48-4.8-10.19-10.01-14.11-15.5Z"/></g></g></g></svg>